<svg xmlns="http://www.w3.org/2000/svg" xml:space="preserve" width="128" height="128"><path fill="#fff" d="M0 0h128v128H0z"/><path fill="gray" d="M21 12.451a7 7 0 0 0-7.142 7v85.715a7 7 0 0 0 7.142 7h85.715a7 7 0 0 0 7-7V19.594a7 7 0 0 0-7-7zm7 14.286h71.43V83.88h-71.43z"/><path fill="#25e3a0" d="M42.671 42.711a12.798 12.798 0 0 0 0 25.595h8.532V42.711zm12.798 0v25.595h8.532V51.242a4.266 4.266 0 0 1 4.266 4.266v12.798h8.532V55.508A12.798 12.798 0 0 0 64 42.71zm21.329 8.532A12.798 12.798 0 0 0 89.596 64.04a4.266 4.266 0 0 1-4.266 4.266h-4.266v8.532h4.266A12.798 12.798 0 0 0 98.128 64.04V42.71h-8.532V55.51a4.266 4.266 0 0 1-4.266-4.266v-8.532H76.8zm-34.127 8.532a4.266 4.266 0 0 1 0-8.532z"/></svg>