<svg width="128" height="128" version="1.1" xml:space="preserve" xmlns="http://www.w3.org/2000/svg"><rect width="128" height="128" fill="#fff"/><g transform="matrix(8.1633 0 0 8.1633 -1.3036 -2.8547)" fill="#808080" stroke-width=".1225"><path d="m2.75 1.875a0.875 0.875 0 0 0-0.875 0.875v10.5a0.875 0.875 0 0 0 0.875 0.875h10.5a0.875 0.875 0 0 0 0.875-0.875v-10.5a0.875 0.875 0 0 0-0.875-0.875zm0.875 1.75h8.75v7h-8.75z" stroke-width=".1225"/></g><path d="m42.671 42.711a12.798 12.798 0 0 0 0 25.595h8.5318v-25.595zm12.798 0v25.595h8.5318v-17.064a4.2659 4.2659 0 0 1 4.2659 4.2659v12.798h8.5318v-12.798a12.798 12.798 0 0 0-12.798-12.798zm21.329 8.5318a12.798 12.798 0 0 0 12.798 12.798 4.2659 4.2659 0 0 1-4.2659 4.2659h-4.2659v8.5318h4.2659a12.798 12.798 0 0 0 12.798-12.798v-21.329h-8.5318v12.798a4.2659 4.2659 0 0 1-4.2659-4.2659v-8.5318h-8.5318zm-34.127 8.5318a4.2659 4.2659 0 0 1 0-8.5318z" fill="#25e3a0" style="mix-blend-mode:normal"/></svg>
